<svg width="512" height="512" viewBox="0 0 512 512" fill="none" xmlns="http://www.w3.org/2000/svg">
<path d="M294.818 347.63C309.697 339.078 321.336 325.853 327.926 310.007C334.517 294.162 335.691 276.583 331.265 260.002C326.84 243.421 317.063 228.765 303.453 218.312C289.842 207.858 273.161 202.191 256 202.191C238.838 202.191 222.157 207.858 208.547 218.312C194.937 228.765 185.16 243.421 180.734 260.002C176.309 276.583 177.483 294.162 184.073 310.007C190.664 325.853 202.303 339.078 217.182 347.63C160.3 364.42 118.67 417.117 118.67 479.364C118.67 481.486 119.513 483.521 121.013 485.021C122.513 486.521 124.548 487.364 126.67 487.364H385.331C387.453 487.364 389.487 486.521 390.988 485.021C392.488 483.521 393.331 481.486 393.331 479.364C393.331 417.117 351.7 364.419 294.818 347.63ZM220.118 411.205L199.965 371.77C202.431 370.481 204.945 369.276 207.505 368.154L242.779 391.991L220.118 411.205ZM255.348 437.141H256.648L264.881 471.364H247.116L255.348 437.141ZM258.509 421.141H253.491L246.467 409.841L256 401.759L265.533 409.842L258.509 421.141ZM269.221 391.991L304.5 368.154C307.06 369.275 309.573 370.48 312.04 371.769L291.887 411.205L269.221 391.991ZM194.1 280.136C194.1 267.893 197.73 255.926 204.532 245.746C211.333 235.567 221.001 227.633 232.312 222.948C243.622 218.263 256.068 217.037 268.076 219.425C280.083 221.814 291.113 227.709 299.77 236.366C308.427 245.023 314.322 256.053 316.71 268.06C319.099 280.067 317.873 292.513 313.188 303.824C308.503 315.135 300.569 324.802 290.39 331.604C280.21 338.406 268.242 342.036 256 342.036C239.588 342.018 223.855 335.49 212.25 323.886C200.645 312.281 194.118 296.547 194.1 280.136ZM285.515 361.669L256 381.615L226.484 361.669C245.863 356.822 266.136 356.822 285.515 361.669ZM186.267 380.129L210.467 427.478C211.016 428.552 211.8 429.489 212.762 430.217C213.724 430.945 214.838 431.447 216.022 431.683C217.205 431.92 218.426 431.886 219.594 431.584C220.762 431.282 221.847 430.72 222.767 429.939L234.134 420.302L240.486 430.522L230.662 471.364H134.931C136.134 453.289 141.37 435.712 150.253 419.925C159.137 404.137 171.443 390.539 186.268 380.129H186.267ZM281.341 471.364L271.516 430.522L277.868 420.302L289.235 429.939C290.155 430.72 291.239 431.282 292.408 431.584C293.576 431.886 294.797 431.92 295.98 431.683C297.163 431.447 298.277 430.945 299.239 430.217C300.201 429.489 300.986 428.552 301.535 427.478L325.735 380.128C340.56 390.539 352.866 404.137 361.749 419.925C370.633 435.712 375.869 453.289 377.073 471.364H281.341ZM222.488 93H226.668V155.422C226.671 159.107 228.137 162.641 230.743 165.247C233.349 167.853 236.882 169.319 240.568 169.322H271.439C275.124 169.319 278.658 167.853 281.264 165.247C283.87 162.641 285.336 159.108 285.339 155.422V93H289.515C291.851 92.9992 294.141 92.3435 296.123 91.1073C298.106 89.8712 299.703 88.1041 300.732 86.0065C301.761 83.9089 302.182 81.5648 301.947 79.2402C301.711 76.9157 300.829 74.7036 299.4 72.855L265.891 29.494C264.723 27.9826 263.224 26.7589 261.509 25.9169C259.795 25.075 257.91 24.6372 256 24.6372C254.09 24.6372 252.205 25.075 250.49 25.9169C248.776 26.7589 247.277 27.9826 246.109 29.494L212.609 72.854C211.178 74.7016 210.294 76.9135 210.057 79.2384C209.82 81.5634 210.24 83.9081 211.269 86.0064C212.298 88.1046 213.894 89.8723 215.878 91.1085C217.861 92.3448 220.151 93.0001 222.488 93ZM256 42.862L282.379 77H277.332C275.21 77 273.175 77.8429 271.675 79.3432C270.175 80.8435 269.332 82.8783 269.332 85V153.319H242.668V85C242.668 82.8783 241.825 80.8435 240.325 79.3432C238.824 77.8429 236.79 77 234.668 77H229.621L256 42.862ZM78.7438 164.253C79.0392 166.572 79.9791 168.761 81.4567 170.572C82.9343 172.383 84.8904 173.744 87.1026 174.499C89.3147 175.253 91.6943 175.373 93.9708 174.843C96.2474 174.312 98.3296 173.154 99.9808 171.5L102.934 168.549L147.073 212.689C149.681 215.291 153.215 216.752 156.9 216.752C160.584 216.752 164.118 215.291 166.727 212.689L188.554 190.861C191.157 188.253 192.619 184.719 192.619 181.034C192.619 177.349 191.157 173.815 188.554 171.207L144.414 127.067L147.362 124.12C149.015 122.468 150.173 120.386 150.702 118.109C151.232 115.833 151.113 113.454 150.358 111.241C149.604 109.029 148.244 107.073 146.434 105.595C144.624 104.116 142.435 103.175 140.117 102.878L85.7628 95.911C83.8681 95.6683 81.943 95.863 80.1353 96.4802C78.3275 97.0974 76.6853 98.1207 75.3347 99.4715C73.9841 100.822 72.9611 102.465 72.3441 104.272C71.7272 106.08 71.5328 108.005 71.7758 109.9L78.7438 164.253ZM131.014 117.843L127.445 121.412C125.945 122.912 125.102 124.947 125.102 127.069C125.102 129.19 125.945 131.225 127.445 132.725L175.755 181.035L156.9 199.89L108.592 151.58C107.849 150.837 106.967 150.248 105.996 149.846C105.026 149.444 103.985 149.237 102.935 149.237C101.884 149.237 100.844 149.444 99.8732 149.846C98.9026 150.248 98.0207 150.837 97.2778 151.58L93.7078 155.149L88.2228 112.357L131.014 117.843ZM145.183 295.57V264.7C145.179 261.015 143.713 257.481 141.107 254.875C138.502 252.269 134.968 250.804 131.283 250.8H68.8628V246.632C68.8663 244.294 68.2138 242.002 66.9792 240.016C65.7447 238.03 63.9777 236.431 61.8792 235.399C59.7807 234.368 57.435 233.946 55.1087 234.182C52.7824 234.417 50.5688 235.301 48.7198 236.732L5.35878 270.244C3.8473 271.412 2.6236 272.911 1.78167 274.625C0.939731 276.34 0.501953 278.225 0.501953 280.135C0.501953 282.045 0.939731 283.93 1.78167 285.645C2.6236 287.359 3.8473 288.858 5.35878 290.026L48.7198 323.532C50.5682 324.963 52.781 325.847 55.1067 326.083C57.4324 326.319 59.7776 325.898 61.8759 324.868C63.9743 323.837 65.7415 322.239 66.9768 320.255C68.212 318.27 68.8658 315.979 68.8638 313.641V309.467H131.287C134.971 309.463 138.503 307.997 141.108 305.392C143.713 302.786 145.179 299.254 145.183 295.57ZM129.183 293.47H60.8628C58.741 293.47 56.7062 294.313 55.2059 295.813C53.7056 297.313 52.8628 299.348 52.8628 301.47V306.518L18.7258 280.136L52.8628 253.756V258.8C52.8628 260.922 53.7056 262.957 55.2059 264.457C56.7062 265.957 58.741 266.8 60.8628 266.8H129.183V293.47ZM345.274 212.69C347.882 215.292 351.416 216.753 355.101 216.753C358.785 216.753 362.319 215.292 364.928 212.69L409.067 168.551L412.015 171.499C413.666 173.154 415.748 174.313 418.025 174.844C420.302 175.374 422.682 175.255 424.895 174.5C427.108 173.746 429.064 172.385 430.542 170.574C432.02 168.762 432.96 166.572 433.256 164.253L440.224 109.899C440.467 108.004 440.272 106.079 439.655 104.271C439.038 102.463 438.015 100.821 436.664 99.4703C435.313 98.1196 433.671 97.0964 431.863 96.4794C430.055 95.8624 428.13 95.668 426.235 95.911L371.883 102.879C369.564 103.174 367.374 104.114 365.563 105.592C363.752 107.069 362.391 109.025 361.636 111.238C360.881 113.45 360.762 115.83 361.292 118.106C361.821 120.383 362.979 122.466 364.634 124.117L367.585 127.068L323.446 171.208C320.843 173.816 319.38 177.35 319.38 181.035C319.38 184.72 320.843 188.254 323.446 190.862L345.274 212.69ZM384.556 132.726C385.299 131.983 385.888 131.101 386.29 130.131C386.692 129.16 386.899 128.12 386.899 127.069C386.899 126.018 386.692 124.978 386.29 124.007C385.888 123.037 385.299 122.155 384.556 121.412L380.986 117.843L423.778 112.357L418.293 155.149L414.725 151.581C413.982 150.838 413.1 150.249 412.129 149.846C411.158 149.444 410.118 149.237 409.067 149.237C408.017 149.237 406.976 149.444 406.005 149.846C405.035 150.249 404.153 150.838 403.41 151.581L355.1 199.89L336.245 181.035L384.556 132.726ZM506.642 270.245L463.281 236.738C461.432 235.307 459.219 234.423 456.894 234.187C454.568 233.951 452.223 234.372 450.124 235.403C448.026 236.433 446.259 238.031 445.023 240.016C443.788 242.001 443.135 244.292 443.137 246.63V250.8H380.714C377.028 250.804 373.495 252.269 370.889 254.875C368.283 257.481 366.817 261.015 366.814 264.7V295.57C366.817 299.255 368.283 302.789 370.889 305.395C373.495 308.001 377.028 309.466 380.714 309.47H443.137V313.638C443.127 315.979 443.775 318.276 445.009 320.265C446.242 322.255 448.01 323.858 450.111 324.89C452.212 325.923 454.561 326.344 456.889 326.105C459.218 325.865 461.433 324.976 463.28 323.538L506.641 290.031C508.152 288.863 509.376 287.364 510.217 285.65C511.059 283.935 511.497 282.051 511.497 280.141C511.497 278.23 511.059 276.346 510.217 274.631C509.376 272.917 508.152 271.418 506.641 270.25L506.642 270.245ZM459.142 306.515V301.468C459.142 299.346 458.299 297.311 456.799 295.811C455.298 294.311 453.264 293.468 451.142 293.468H382.822V266.8H451.142C453.264 266.8 455.298 265.957 456.799 264.457C458.299 262.957 459.142 260.922 459.142 258.8V253.753L493.279 280.132L459.142 306.515Z" fill="#00A6BC"/>
</svg>
