<svg width="512" height="512" viewBox="0 0 512 512" fill="none" xmlns="http://www.w3.org/2000/svg">
<g clip-path="url(#clip0_204_189)">
<path d="M458.529 340.171L425.155 332.197V320.474C443.589 309.584 455.988 289.518 455.988 266.6V222.353C455.988 187.87 427.933 159.816 393.45 159.816H386.534C368.123 159.816 351.549 167.817 340.095 180.52C329.002 144.615 295.5 118.452 256 118.452C216.5 118.452 182.998 144.613 171.905 180.52C160.451 167.817 143.877 159.816 125.466 159.816H118.55C84.0672 159.816 56.0112 187.87 56.0112 222.353V266.6C56.0112 289.517 68.4102 309.584 86.8442 320.474V332.197L53.4702 340.171C21.9962 347.691 0.0141602 375.542 0.0141602 407.901V438.003C0.0141602 443.525 4.49216 448.002 10.0132 448.002H90.7752C90.2639 451.988 90.0077 456.003 90.0082 460.022V492H30.0122C24.4902 492 20.0132 496.478 20.0132 501.999C20.0132 507.521 24.4912 511.998 30.0122 511.998H481.986C487.508 511.998 491.985 507.52 491.985 501.999C491.985 496.477 487.507 492 481.986 492H421.99V460.07C421.99 455.987 421.727 451.959 421.217 448.003H501.985C507.507 448.003 511.984 443.525 511.984 438.004V407.902C511.985 375.542 490.002 347.69 458.529 340.171ZM343.996 222.353C343.995 198.897 363.078 179.814 386.535 179.814H393.451C416.908 179.814 435.991 198.897 435.991 222.353V224.917C421.583 224.753 407.522 220.469 395.469 212.572C393.842 211.506 391.939 210.938 389.994 210.938C388.049 210.938 386.146 211.506 384.519 212.572C372.467 220.47 358.406 224.754 343.997 224.917V222.353H343.996ZM343.995 258.444V244.918C360.185 244.762 375.947 240.546 389.992 232.635C404.037 240.547 419.799 244.762 435.989 244.918V266.601C435.989 290.058 416.906 309.141 393.449 309.141H386.533C363.076 309.141 343.993 290.058 343.993 266.601V258.444H343.995ZM363.173 373.54C359.063 371.917 354.845 370.585 350.548 369.554L318.768 361.961C321.136 360.985 323.577 360.195 326.067 359.596L357.654 352.026L363.173 373.54ZM354.895 320.513V332.123L321.406 340.148C314.213 341.87 307.34 344.73 301.048 348.619V334.005C314.789 325.777 326.043 313.979 333.616 299.867C338.965 308.344 346.26 315.422 354.895 320.513ZM323.997 258.444C323.997 295.937 293.494 326.44 256.001 326.44C218.508 326.44 188.005 295.937 188.005 258.444V229.152H198.995C227.068 229.152 253.814 220.194 275.802 203.926L278.094 207.351C282.575 214.064 288.646 219.567 295.765 223.37C302.885 227.174 310.833 229.16 318.905 229.152H323.998L323.997 258.444ZM188.003 206.446C188.003 168.954 218.506 138.451 255.999 138.451C293.492 138.451 323.995 168.954 323.995 206.447V209.153H318.902C314.118 209.158 309.407 207.981 305.187 205.726C300.968 203.472 297.37 200.211 294.714 196.232L291.016 190.704C294.035 187.645 296.902 184.44 299.606 181.1C303.078 176.805 302.41 170.509 298.114 167.038C293.822 163.566 287.524 164.233 284.052 168.53C263.189 194.346 232.187 209.152 198.994 209.152H188.003V206.446ZM178.383 299.867C185.973 314.012 197.261 325.83 211.043 334.06V348.675C204.726 344.757 197.821 341.879 190.592 340.149L157.104 332.124V320.514C165.738 315.422 173.033 308.344 178.383 299.867ZM193.121 361.917L161.385 369.522C157.116 370.55 152.923 371.875 148.838 373.487L154.345 352.028L185.931 359.598C188.396 360.188 190.797 360.968 193.121 361.917ZM76.0112 222.353C76.0102 198.897 95.0932 179.814 118.55 179.814H125.466C148.923 179.814 168.006 198.897 168.006 222.353V224.917C153.598 224.753 139.537 220.469 127.484 212.572C125.857 211.506 123.954 210.938 122.009 210.938C120.064 210.938 118.161 211.506 116.534 212.572C104.482 220.47 90.4209 224.754 76.0122 224.917L76.0112 222.353ZM76.0102 266.601V244.918C92.2002 244.762 107.962 240.546 122.007 232.635C136.052 240.547 151.814 244.762 168.004 244.918V266.601C168.004 290.058 148.921 309.141 125.464 309.141H118.548C95.0932 309.141 76.0102 290.058 76.0102 266.601ZM95.6502 428.007H20.0132V407.902C20.0132 384.836 35.6822 364.982 58.1162 359.624L89.6012 352.102L104.476 410.084C100.896 415.722 97.9366 421.732 95.6502 428.007ZM106.844 328.024C110.702 328.762 114.621 329.136 118.549 329.139H125.465C129.444 329.139 133.331 328.75 137.105 328.036V338.746L124.575 387.581C123.109 388.754 121.68 389.971 120.288 391.231L106.844 338.826V328.024ZM110.008 492.001V460.025C110.008 435.776 121.783 413.939 140.544 400.561L231.984 492.001H110.008ZM159.23 390.964C161.469 390.191 163.744 389.525 166.046 388.97L213.802 377.526L237.273 469.007L159.23 390.964ZM231.041 364.246V342.83C239.143 345.229 247.549 346.445 255.999 346.441C264.699 346.441 273.105 345.166 281.049 342.803V364.361L256.061 461.762L231.041 364.246ZM298.29 377.632L345.902 389.006C348.273 389.577 350.615 390.264 352.918 391.066L274.805 469.18L298.29 377.632ZM401.991 492.001H280.266L371.572 400.694C390.265 414.075 401.991 435.868 401.991 460.071V492.001ZM405.157 338.828L391.703 391.269C390.319 390.016 388.897 388.806 387.439 387.639L374.895 338.748V328.038C378.732 328.768 382.629 329.138 386.535 329.141H393.451C397.453 329.141 401.363 328.748 405.157 328.026V338.828ZM491.986 428.005H416.334C414.048 421.74 411.091 415.741 407.515 410.112L422.397 352.101L453.882 359.623C476.317 364.982 491.985 384.836 491.985 407.901V428.005H491.986ZM255.999 0C250.478 0 246 4.478 246 9.999V52.813C246 58.336 250.477 62.812 255.999 62.812C261.521 62.812 265.998 58.334 265.998 52.813V9.999C265.999 4.478 261.521 0 255.999 0ZM263.068 80.515C261.189 78.6468 258.649 77.5941 255.999 77.585C253.358 77.585 250.789 78.655 248.929 80.515C247.059 82.3936 246.006 84.9344 245.999 87.585C245.999 90.215 247.068 92.795 248.929 94.655C250.789 96.515 253.369 97.585 255.999 97.585C258.629 97.585 261.209 96.515 263.068 94.655C264.935 92.7745 265.988 90.235 265.999 87.585C265.999 84.945 264.929 82.375 263.068 80.515ZM189.504 82.784L152.453 45.741C148.548 41.836 142.217 41.838 138.311 45.743C134.407 49.648 134.408 55.979 138.313 59.885L175.365 96.928C176.293 97.8577 177.395 98.5949 178.608 99.0974C179.821 99.5999 181.122 99.8577 182.435 99.856C183.749 99.8576 185.05 99.5996 186.264 99.0968C187.477 98.5939 188.58 97.8562 189.507 96.926C193.41 93.022 193.409 86.69 189.504 82.784ZM375.182 44.187C371.277 40.285 364.948 40.283 361.04 44.187L321.732 83.494C317.827 87.399 317.827 93.73 321.732 97.636C323.686 99.589 326.245 100.565 328.804 100.565C331.363 100.565 333.922 99.588 335.875 97.636L375.183 58.329C379.087 54.424 379.087 48.092 375.182 44.187Z" fill="#00A6BC"/>
</g>
<defs>
<clipPath id="clip0_204_189">
<rect width="512" height="512" fill="white"/>
</clipPath>
</defs>
</svg>
