<svg width="512" height="512" viewBox="0 0 512 512" fill="none" xmlns="http://www.w3.org/2000/svg">
<path d="M496.124 456H464.124V144H496.124C497.706 144 499.252 143.53 500.568 142.651C501.883 141.772 502.908 140.523 503.513 139.061C504.119 137.6 504.277 135.991 503.969 134.44C503.66 132.888 502.899 131.463 501.78 130.344L381.78 10.344C380.28 8.84423 378.245 8.00171 376.124 8.00171C374.003 8.00171 371.968 8.84423 370.468 10.344L340.812 40H216.124C214.002 40 211.967 40.8429 210.467 42.3431C208.967 43.8434 208.124 45.8783 208.124 48C208.124 50.1217 208.967 52.1566 210.467 53.6569C211.967 55.1571 214.002 56 216.124 56H324.812L308.812 72H160.124V56H184.124C186.246 56 188.281 55.1571 189.781 53.6569C191.281 52.1566 192.124 50.1217 192.124 48C192.124 45.8783 191.281 43.8434 189.781 42.3431C188.281 40.8429 186.246 40 184.124 40H152.124C150.002 40 147.967 40.8429 146.467 42.3431C144.967 43.8434 144.124 45.8783 144.124 48V80C144.124 82.1217 144.967 84.1566 146.467 85.6569C147.967 87.1571 150.002 88 152.124 88H168.124V104H40.124C38.0023 104 35.9675 104.843 34.4672 106.343C32.9669 107.843 32.124 109.878 32.124 112V144C32.124 146.122 32.9669 148.157 34.4672 149.657C35.9675 151.157 38.0023 152 40.124 152H48.124V260.688L10.468 298.345C9.34989 299.464 8.58854 300.889 8.2802 302.441C7.97185 303.992 8.13036 305.6 8.73568 307.061C9.341 308.523 10.366 309.772 11.681 310.651C12.9961 311.53 14.5422 311.999 16.124 312H48.124V456H16.124C14.0023 456 11.9675 456.843 10.4672 458.343C8.96688 459.843 8.12402 461.878 8.12402 464V496C8.12402 498.122 8.96688 500.157 10.4672 501.657C11.9675 503.157 14.0023 504 16.124 504H56.124C58.2458 504 60.2806 503.157 61.7809 501.657C63.2812 500.157 64.124 498.122 64.124 496C64.124 493.878 63.2812 491.843 61.7809 490.343C60.2806 488.843 58.2458 488 56.124 488H24.124V472H488.124V488H88.124C86.0023 488 83.9675 488.843 82.4672 490.343C80.9669 491.843 80.124 493.878 80.124 496C80.124 498.122 80.9669 500.157 82.4672 501.657C83.9675 503.157 86.0023 504 88.124 504H496.124C498.246 504 500.281 503.157 501.781 501.657C503.281 500.157 504.124 498.122 504.124 496V464C504.124 461.878 503.281 459.843 501.781 458.343C500.281 456.843 498.246 456 496.124 456ZM448.124 264H432.124V200C432.124 185.148 426.224 170.904 415.722 160.402C405.22 149.9 390.976 144 376.124 144C361.272 144 347.028 149.9 336.526 160.402C326.024 170.904 320.124 185.148 320.124 200V264H304.124V139.313L376.124 67.313L448.124 139.313V264ZM384.124 160.808C391.802 162.391 398.849 166.188 404.392 171.732C409.936 177.275 413.733 184.322 415.316 192H384.124V160.808ZM368.124 192H336.933C338.516 184.322 342.313 177.276 347.856 171.732C353.4 166.189 360.446 162.391 368.124 160.808V192ZM336.124 208H368.124V264H336.124V208ZM384.124 208H416.124V264H384.124V208ZM304.124 280H448.124V296H304.124V280ZM376.124 27.312L476.812 128H459.437L381.78 50.345C380.28 48.8452 378.245 48.0027 376.124 48.0027C374.003 48.0027 371.968 48.8452 370.468 50.345L292.812 128H275.437L317.775 85.661L317.787 85.649L349.775 53.661L349.787 53.649L376.124 27.312ZM292.812 88L250.468 130.344C249.35 131.463 248.588 132.888 248.279 134.44C247.971 135.991 248.129 137.6 248.735 139.061C249.34 140.523 250.365 141.772 251.68 142.651C252.996 143.53 254.542 144 256.124 144H288.124V400C288.124 402.122 288.967 404.157 290.467 405.657C291.967 407.157 294.002 408 296.124 408C298.246 408 300.281 407.157 301.781 405.657C303.281 404.157 304.124 402.122 304.124 400V312H448.124V456H432.124V336C432.124 333.878 431.281 331.843 429.781 330.343C428.281 328.843 426.246 328 424.124 328H328.124C326.002 328 323.967 328.843 322.467 330.343C320.967 331.843 320.124 333.878 320.124 336V456H304.124V432C304.124 429.878 303.281 427.843 301.781 426.343C300.281 424.843 298.246 424 296.124 424C294.002 424 291.967 424.843 290.467 426.343C288.967 427.843 288.124 429.878 288.124 432V456H224.124V312H256.124C257.706 312 259.252 311.53 260.568 310.651C261.883 309.772 262.908 308.523 263.513 307.061C264.119 305.6 264.277 303.991 263.969 302.44C263.66 300.888 262.899 299.463 261.78 298.344L184.124 220.687V88H292.812ZM416.124 360H400.124V344H416.124V360ZM384.124 360H368.124V344H384.124V360ZM352.124 360H336.124V344H352.124V360ZM336.124 376H416.124V456H336.124V376ZM48.124 120H168.124V136H48.124V120ZM64.124 152H168.124V204.687L141.78 178.345C140.28 176.845 138.245 176.003 136.124 176.003C134.003 176.003 131.968 176.845 130.468 178.345L64.124 244.688V152ZM136.124 195.312L236.812 296H219.437L141.78 218.345C140.28 216.845 138.245 216.003 136.124 216.003C134.003 216.003 131.968 216.845 130.468 218.345L52.812 296H35.437L136.124 195.312ZM64.124 307.312L136.124 235.312L208.124 307.312V456H184.124V376C184.124 363.27 179.067 351.061 170.065 342.059C161.063 333.057 148.854 328 136.124 328C123.394 328 111.185 333.057 102.183 342.059C93.1812 351.061 88.124 363.27 88.124 376V456H64.124V307.312ZM168.124 456H104.124V376C104.124 367.513 107.495 359.374 113.497 353.373C119.498 347.371 127.637 344 136.124 344C144.611 344 152.75 347.371 158.751 353.373C164.753 359.374 168.124 367.513 168.124 376V456Z" fill="#00A6BC"/>
</svg>
