<svg width="512" height="512" viewBox="0 0 512 512" fill="none" xmlns="http://www.w3.org/2000/svg">
<path d="M151.653 220.942L151.635 221.268C150.373 243.363 162.75 264.062 183.174 273.985L183.383 274.088C190.585 277.534 196.485 283.209 200.209 290.271L200.292 290.425C210.584 310.02 231.869 321.899 254.561 320.707L254.905 320.688C263.135 320.227 271.303 322.351 278.265 326.763C287.683 332.653 298.567 335.776 309.674 335.776C320.782 335.776 331.666 332.653 341.083 326.763C348.046 322.351 356.214 320.227 364.444 320.688L364.789 320.707C387.442 321.907 408.755 310.019 419.069 290.392L419.121 290.285C422.856 283.205 428.775 277.519 435.998 274.069L436.165 273.985C456.59 264.057 468.97 243.362 467.705 221.264L467.686 220.956C467.266 213.173 469.429 205.47 473.839 199.044C486.541 180.517 486.541 156.09 473.844 137.562C469.434 131.138 467.269 123.438 467.686 115.657L467.705 115.331C468.97 93.2309 456.589 72.5372 436.147 62.6043L435.961 62.5114C428.775 59.0774 422.883 53.423 419.157 46.3837L419.05 46.174C408.755 26.5788 387.442 14.7049 364.789 15.8917L364.44 15.9108C356.213 16.372 348.047 14.248 341.088 9.83625H341.078C331.661 3.94612 320.777 0.822754 309.669 0.822754C298.562 0.822754 287.678 3.94612 278.261 9.83625C271.297 14.2444 263.129 16.3666 254.9 15.906L254.555 15.887C231.897 14.6859 210.589 26.574 200.298 46.1644L200.218 46.3098C196.492 53.3824 190.586 59.0655 183.375 62.5162L183.178 62.6091C162.755 72.5324 150.374 93.2321 151.64 115.331L151.658 115.638C152.079 123.42 149.916 131.123 145.505 137.547C132.803 156.076 132.803 180.509 145.505 199.033C149.914 205.458 152.076 213.161 151.653 220.942ZM161.195 148.374C168.004 138.46 171.343 126.572 170.69 114.562L170.671 114.236C170.345 107.076 172.148 99.9799 175.854 93.8451C179.56 87.7103 185.002 82.8121 191.491 79.7699L191.655 79.6901C202.54 74.4776 211.455 65.8955 217.078 55.2167L217.171 55.0403C224.008 42.0166 238.33 34.1226 253.541 34.9328L253.875 34.9459C266.046 35.6318 278.126 32.4923 288.422 25.9675C294.793 21.9823 302.156 19.869 309.67 19.869C317.184 19.869 324.547 21.9823 330.918 25.9675C341.216 32.485 353.291 35.6258 365.459 34.9519L365.794 34.9328C381.079 34.1321 395.332 42.0166 402.15 55.0022L402.275 55.2405C407.898 65.9037 416.804 74.4732 427.676 79.6805L427.834 79.7604C441.313 86.3139 449.497 99.8441 448.672 114.24L448.653 114.58C448.003 126.588 451.343 138.474 458.153 148.386C462.174 154.249 464.324 161.192 464.322 168.302C464.321 175.411 462.167 182.353 458.144 188.215C451.339 198.132 448.002 210.021 448.653 222.031L448.672 222.352C449.496 236.748 441.313 250.283 427.83 256.841L427.69 256.907C416.793 262.128 407.87 270.723 402.243 281.417L402.174 281.556C395.331 294.58 381.032 302.479 365.798 301.664L365.468 301.646C353.295 300.967 341.214 304.108 330.913 310.629C324.544 314.612 317.182 316.724 309.67 316.724C302.158 316.724 294.797 314.612 288.427 310.629C279.061 304.694 268.199 301.547 257.11 301.557C256.036 301.557 254.956 301.585 253.875 301.646L253.542 301.659C246.189 302.126 238.856 300.479 232.409 296.913C225.961 293.347 220.669 288.01 217.156 281.534L217.059 281.352C211.444 270.692 202.544 262.125 191.679 256.92L191.5 256.832C178.016 250.278 169.834 236.742 170.663 222.352L170.681 222.012C171.328 210.004 167.988 198.119 161.182 188.205C157.164 182.342 155.015 175.4 155.017 168.292C155.019 161.184 157.173 154.243 161.195 148.382V148.374Z" fill="#00A6BC"/>
<path d="M248.165 266.845C252.629 269.634 258.508 268.269 261.296 263.806L374.219 82.9036C374.882 81.8415 375.329 80.6593 375.535 79.4243C375.741 78.1894 375.702 76.926 375.42 75.7062C375.137 74.4864 374.618 73.3342 373.89 72.3153C373.163 71.2964 372.241 70.4308 371.179 69.7679C370.117 69.105 368.935 68.6577 367.7 68.4517C366.465 68.2457 365.202 68.285 363.982 68.5672C362.762 68.8495 361.61 69.3692 360.591 70.0968C359.572 70.8243 358.707 71.7455 358.044 72.8075L245.126 253.71C244.462 254.772 244.015 255.954 243.809 257.189C243.602 258.424 243.641 259.687 243.924 260.907C244.206 262.127 244.725 263.279 245.453 264.298C246.181 265.317 247.102 266.183 248.164 266.845H248.165ZM258.284 168.77C281.496 168.77 300.384 147.233 300.384 120.762C300.384 94.2901 281.496 72.7623 258.284 72.7623C235.073 72.7623 216.189 94.2937 216.189 120.764C216.189 147.235 235.071 168.771 258.284 168.771V168.77ZM258.284 91.826C270.986 91.826 281.319 104.807 281.319 120.763C281.319 136.719 270.986 149.705 258.284 149.705C245.586 149.705 235.254 136.714 235.254 120.762C235.254 104.812 245.586 91.826 258.284 91.826ZM318.961 215.844C318.961 242.316 337.843 263.847 361.056 263.847C384.269 263.847 403.156 242.311 403.156 215.846C403.156 189.385 384.272 167.844 361.061 167.844C337.843 167.844 318.961 189.369 318.961 215.844ZM384.091 215.844C384.091 231.801 373.758 244.783 361.056 244.783C348.357 244.783 338.025 231.801 338.025 215.846C338.025 199.891 348.357 186.909 361.056 186.909C373.758 186.909 384.091 199.879 384.091 215.844ZM510.763 374.137C498.141 351.734 470.148 343.203 447.178 354.755L372.506 390.037C367.439 380.616 359.977 372.698 350.874 367.081C341.77 361.465 331.346 358.348 320.654 358.046L251.721 356.147C240.803 355.832 230.096 353.067 220.391 348.056L213.377 344.422C195.681 335.199 176.017 330.393 156.062 330.414C136.107 330.435 116.454 335.283 98.7776 344.543L99.216 328.653C99.2509 327.401 99.0389 326.155 98.592 324.985C98.145 323.815 97.472 322.745 96.6113 321.835C95.7507 320.926 94.7192 320.195 93.5759 319.684C92.4326 319.173 91.1999 318.892 89.9481 318.858L14.3593 316.779C13.1081 316.744 11.8622 316.957 10.693 317.404C9.52382 317.851 8.45415 318.524 7.54513 319.384C6.63611 320.245 5.90554 321.276 5.39518 322.419C4.88482 323.562 4.60465 324.794 4.57069 326.046L0.00464855 491.928C-0.030099 493.18 0.182046 494.426 0.628968 495.595C1.07589 496.765 1.74883 497.835 2.60936 498.744C3.46989 499.654 4.50114 500.385 5.64423 500.896C6.78731 501.406 8.01983 501.687 9.27139 501.721L84.8614 503.802H85.1259C87.6082 503.8 89.992 502.83 91.7712 501.099C93.5503 499.368 94.5847 497.012 94.6548 494.53L94.8692 486.595L114.506 476.079C122.212 471.932 131.229 470.946 139.649 473.329L256.91 506.24C257.115 506.302 257.32 506.347 257.53 506.395C266.007 508.167 274.646 509.058 283.307 509.052C301.646 509.063 319.771 505.108 336.438 497.458C336.847 497.271 337.243 497.058 337.62 496.815L507.64 386.834C509.682 385.515 511.143 383.466 511.723 381.106C512.304 378.745 511.96 376.252 510.763 374.137ZM19.3269 482.92L23.3663 336.103L79.9009 337.657L75.8544 484.481L19.3269 482.92ZM327.847 480.421C307.138 489.767 284.011 492.347 261.752 487.793L144.803 454.974C131.644 451.253 117.554 452.794 105.51 459.271L95.4746 464.643L98.1651 367.023C129.959 345.873 170.743 343.7 204.609 361.344L211.624 364.978C223.883 371.31 237.409 374.804 251.2 375.202L320.134 377.1C339.497 377.654 355.941 391.441 359.87 410.412L257.191 407.587C255.94 407.553 254.694 407.765 253.525 408.212C252.356 408.659 251.286 409.332 250.377 410.193C249.468 411.053 248.738 412.084 248.227 413.227C247.717 414.37 247.437 415.603 247.403 416.854C247.368 418.106 247.58 419.352 248.027 420.521C248.474 421.691 249.147 422.761 250.008 423.67C250.868 424.58 251.899 425.311 253.042 425.822C254.185 426.332 255.418 426.613 256.67 426.647L369.984 429.766H370.253C372.735 429.763 375.118 428.793 376.896 427.062C378.674 425.331 379.708 422.975 379.778 420.494C379.892 416.351 379.583 412.207 378.855 408.126L455.432 371.938L455.655 371.831C460.958 369.145 466.957 368.146 472.845 368.97C478.733 369.794 484.228 372.4 488.591 376.439L327.847 480.421Z" fill="#00A6BC"/>
</svg>
